<svg width="88" height="88" viewBox="0 0 88 88" fill="none" xmlns="http://www.w3.org/2000/svg">
<path d="M50.3939 44.589L48.036 42.2311C47.7024 41.8974 47.1599 41.8974 46.8263 42.2311L34.3985 54.6588L24.3817 44.642L34.3797 34.644L38.0141 38.2647C38.3477 38.5984 38.8884 38.5967 39.2221 38.263L41.58 35.9051C41.9154 35.5697 41.9137 35.0273 41.5783 34.6936L34.9768 28.1161C34.6432 27.7824 34.1025 27.7841 33.7688 28.1178L17.8503 44.038C17.5167 44.3717 17.5167 44.9141 17.8503 45.2477L33.7705 61.1679C34.1042 61.5016 34.6449 61.5016 34.9803 61.1696L50.3957 45.8004C50.7293 45.4651 50.7293 44.9226 50.3939 44.589Z" fill="white"/>
<path d="M68.7766 44.0373L52.8564 28.1172C52.5227 27.7835 51.982 27.7835 51.6466 28.1155L36.2312 43.4847C35.8959 43.8183 35.8959 44.3607 36.2295 44.6961L38.5874 47.054C38.9211 47.3877 39.4635 47.3877 39.7972 47.054L52.225 34.6262L62.2418 44.6431L52.2438 54.6411L48.6094 51.0204C48.2757 50.6867 47.735 50.6884 47.4014 51.0221L45.0435 53.38C44.7081 53.7154 44.7098 54.2578 45.0452 54.5915L51.6466 61.169C51.9803 61.5027 52.521 61.5009 52.8547 61.1673L68.7748 45.2471C69.1102 44.9134 69.1102 44.371 68.7766 44.0373Z" fill="white"/>
</svg>
