<svg width="96" height="96" viewBox="0 0 96 96" fill="none" xmlns="http://www.w3.org/2000/svg">
<circle cx="48" cy="48" r="48" fill="#A73FFF"/>
<path d="M48.343 65.8287C51.8695 59.6573 68.9144 31.543 68.9144 31.543L43.8859 58.2858L34.2859 47.3144L27.4287 50.743C27.4287 50.743 37.7144 64.8001 39.7716 67.543C41.8287 70.2858 45.943 70.6287 48.343 65.8287Z" fill="#AAA59F"/>
<path fill-rule="evenodd" clip-rule="evenodd" d="M67.3715 27.3551C69.1638 28.5059 69.6838 30.8919 68.5329 32.6842L46.6269 66.7994C45.9561 67.8441 44.8232 68.502 43.5833 68.5669C42.3434 68.6318 41.148 68.0958 40.3717 67.1268L27.5896 51.1711C26.2578 49.5088 26.5259 47.0816 28.1882 45.7499C29.8506 44.4182 32.2777 44.6862 33.6095 46.3485L43.0362 58.1157L62.0424 28.5165C63.1933 26.7242 65.5792 26.2042 67.3715 27.3551Z" fill="white"/>
</svg>
