<svg width="71" height="71" viewBox="0 0 72 71" fill="none" xmlns="http://www.w3.org/2000/svg">
<g clip-path="url(#clip0_5_3865)">
<rect x="0.909912" width="70.8057" height="70.8057" rx="35.4028" fill="#D097FF"/>
<path d="M58.1963 100.582H14.6315C8.98004 100.582 4.39893 95.9984 4.39893 90.3437V63.922C4.39893 58.2673 8.98004 53.6836 14.6315 53.6836H58.1973C63.8487 53.6836 68.4299 58.2673 68.4299 63.922V90.3428C68.4289 95.9974 63.8478 100.582 58.1963 100.582Z" fill="#9310FF"/>
<path d="M42.1371 44.8433H31.5923V51.7583C31.5923 54.6721 33.953 57.0332 36.8642 57.0332C39.7764 57.0332 42.1361 54.6711 42.1361 51.7583V44.8433H42.1371Z" fill="#8B2BDA"/>
<path d="M36.4139 51.863C46.2259 51.863 53.2951 43.3761 53.2951 32.9071C53.2951 21.1104 46.2259 13.9512 36.4139 13.9512C26.6019 13.9512 19.5327 21.1104 19.5327 32.9071C19.5327 43.3761 26.6019 51.863 36.4139 51.863Z" fill="#9310FF"/>
<path d="M33.6415 37.3774V37.6893H37.2864V37.3774C37.3059 35.4575 37.9881 34.5609 39.5377 33.635C41.3602 32.5435 42.5297 31.1011 42.5297 28.8303C42.5297 25.429 39.8106 23.4312 35.9512 23.4312C32.4427 23.4312 29.5579 25.2926 29.48 29.1617H33.3881C33.4563 27.5536 34.655 26.696 35.9317 26.696C37.2669 26.696 38.3487 27.5926 38.3487 28.957C38.3487 30.2435 37.4326 31.1011 36.2338 31.8613C34.5868 32.8944 33.6609 33.9469 33.6415 37.3774ZM33.2321 41.5974C33.2126 42.8741 34.2652 43.9072 35.5419 43.9072C36.7796 43.9072 37.8517 42.8741 37.8614 41.5974C37.8517 40.3304 36.7796 39.2974 35.5419 39.2974C34.2652 39.2974 33.2126 40.3304 33.2321 41.5974Z" fill="#E3E3E3"/>
</g>
<defs>
<clipPath id="clip0_5_3865">
<rect x="0.909912" width="70.8057" height="70.8057" rx="35.4028" fill="white"/>
</clipPath>
</defs>
</svg>
